# xmcd
#
# Track frame offsets: 
#        150
#        20937
#        31155
#        44994
#        55909
#        68216
#        92588
#        129730
#        141431
#        165016
#        221113
#        222636
#        236866
#        238607
#        246143
#        252774
#        264685
#        289851
#
# Disc length: 4466 seconds
#
# Revision: 0
# Processed by: cddbd v1.5.2PL0 Copyright (c) Steve Scherf et al.
# Submitted via: ExactAudioCopy v0.95b3
#
DISCID=20117012
DTITLE=Rush  - La Villa Strangiato  FLAC
DYEAR=1900
DGENRE=
TTITLE0=2112 Overture
TTITLE1=The Temples of Syrinx
TTITLE2=Presentation
TTITLE3=Soliloquy
TTITLE4=Grand Finale
TTITLE5=The Spirit of Radio
TTITLE6=Natural Science
TTITLE7=Beneath, Between and Behind
TTITLE8=By-Tor and the Snow Dog
TTITLE9=Xanadu
TTITLE10=Intro Jam
TTITLE11=Working Man
TTITLE12=Finding My Way
TTITLE13=Anthem
TTITLE14=Bastille Day
TTITLE15=In The Mood
TTITLE16=Drum Solo
TTITLE17=La Villa Strangiato
EXTD=
EXTT0=
EXTT1=
EXTT2=
EXTT3=
EXTT4=
EXTT5=
EXTT6=
EXTT7=
EXTT8=
EXTT9=
EXTT10=
EXTT11=
EXTT12=
EXTT13=
EXTT14=
EXTT15=
EXTT16=
EXTT17=
PLAYORDER=
